<?xml version="1.0" encoding="utf-8"?>
<!-- Generator: Adobe Illustrator 23.1.0, SVG Export Plug-In . SVG Version: 6.00 Build 0)  -->
<svg version="1.1" id="Layer_1" xmlns="http://www.w3.org/2000/svg" xmlns:xlink="http://www.w3.org/1999/xlink" x="0px" y="0px"
	 viewBox="0 0 40 40" style="enable-background:new 0 0 40 40;" xml:space="preserve">
<style type="text/css">
	.st0{fill:#FFFFFF;enable-background:new    ;}
</style>
<path class="st0" d="M0.5,20c0,10.8,8.7,19.5,19.5,19.5S39.5,30.8,39.5,20S30.8,0.5,20,0.5S0.5,9.2,0.5,20z M14.3,20.5
	c0-0.1,0.1-0.3,0.2-0.4l8.5-8.5c0.1-0.1,0.3-0.2,0.4-0.2c0.1,0,0.3,0.1,0.4,0.2l0.9,0.9c0.1,0.1,0.2,0.3,0.2,0.4s-0.1,0.3-0.2,0.4
	l-7.2,7.2l7.2,7.2c0.1,0.1,0.2,0.3,0.2,0.4c0,0.2-0.1,0.3-0.2,0.4l-0.9,0.9c-0.1,0.1-0.3,0.2-0.4,0.2c-0.1,0-0.3-0.1-0.4-0.2
	l-8.5-8.5C14.4,20.8,14.3,20.6,14.3,20.5z"/>
</svg>