<?xml version="1.0" encoding="utf-8"?>
<!-- Generator: Adobe Illustrator 23.1.0, SVG Export Plug-In . SVG Version: 6.00 Build 0)  -->
<svg version="1.1" xmlns="http://www.w3.org/2000/svg" xmlns:xlink="http://www.w3.org/1999/xlink" x="0px" y="0px"
	 viewBox="0 0 64 64" style="enable-background:new 0 0 64 64;" xml:space="preserve">
<style type="text/css">
	.st0{display:none;}
	.st1{display:inline;}
	.st2{fill:#FFD36B;}
	.st3{fill:#9CD5F2;}
	.st4{fill:#776D8A;}
	.st5{fill:#9883BA;}
	.st6{fill:#C3AED6;}
</style>
<g id="Layer_1" class="st0">
	<title></title>
	<g id="Sunny" class="st1">
		<path class="st2" d="M38.8,19.6c-5,0-9.5,3-11.3,7.7c-0.2,0.5,0,1.1,0.6,1.3c0.1,0,0.1,0,0.2,0.1c4,0.6,7.4,3.2,9.1,6.9
			c0.2,0.4,0.7,0.7,1.1,0.6c3.2-0.7,6.6,0.4,8.8,2.8c0.2,0.2,0.5,0.3,0.7,0.3c0,0,0,0,0.1,0c0.3,0,0.6-0.2,0.8-0.4
			c3.9-5.5,2.6-13.1-2.9-17C43.8,20.3,41.3,19.6,38.8,19.6z"/>
		<path class="st3" d="M51.6,44.4c-0.4-6.2-5.8-10.9-12-10.5c-0.3,0-0.5,0-0.8,0.1c-3.6-6.9-12.1-9.6-19-6c-3.1,1.6-5.6,4.4-6.8,7.8
			c-4.2,0.1-7.5,3.5-7.4,7.7c0,0.2,0,0.4,0,0.7C2.8,45.6,1,48.5,1,51.7c0,1.5,0.4,3,1.1,4.2c0.2,0.3,0.5,0.5,0.9,0.5h52
			c0.3,0,0.6-0.2,0.8-0.4c0.9-1.3,1.4-2.8,1.4-4.3C57.2,48.3,54.9,45.3,51.6,44.4z"/>
		<path class="st4" d="M38.8,16.8c0.6,0,1-0.4,1-1V8.5c0-0.6-0.4-1-1-1s-1,0.4-1,1v7.2C37.8,16.3,38.2,16.8,38.8,16.8z"/>
		<path class="st4" d="M26.7,21.1c0.4,0.4,1,0.4,1.4,0c0,0,0,0,0,0c0.4-0.4,0.4-1,0-1.4l-3.4-3.4c-0.4-0.4-1-0.4-1.4,0c0,0,0,0,0,0
			c-0.4,0.4-0.4,1,0,1.4L26.7,21.1z"/>
		<path class="st4" d="M62,30.8h-7.2c-0.6,0-1,0.4-1,1c0,0.6,0.4,1,1,1H62c0.6,0,1-0.4,1-1S62.6,30.8,62,30.8z"/>
		<path class="st4" d="M50.1,21.4c0.3,0,0.5-0.1,0.7-0.3l3.4-3.4c0.4-0.4,0.4-1,0-1.4c-0.4-0.4-1-0.4-1.4,0l-3.4,3.4
			c-0.4,0.4-0.4,1,0,1.4C49.6,21.3,49.8,21.4,50.1,21.4z"/>
		<path class="st4" d="M51.6,44.4c-0.2-2.3-1-4.5-2.4-6.2c3.6-5.7,1.8-13.3-4-16.8s-13.3-1.8-16.8,4c-0.2,0.4-0.5,0.8-0.6,1.2
			c-6.4-0.7-12.5,3.2-14.7,9.2c-4.2,0.1-7.5,3.5-7.4,7.7c0,0.2,0,0.4,0,0.7C2.8,45.6,1,48.5,1,51.7c0,1.5,0.4,3,1.1,4.2
			c0.2,0.3,0.5,0.5,0.9,0.5h52c0.3,0,0.6-0.2,0.8-0.4c0.9-1.3,1.4-2.8,1.4-4.3C57.2,48.3,54.9,45.3,51.6,44.4z M38.8,21.6
			c5.6,0,10.2,4.6,10.2,10.2c0,1.7-0.4,3.4-1.3,4.9c0,0,0,0,0,0c0,0-0.1-0.1-0.1-0.1c-0.3-0.2-0.5-0.4-0.8-0.6
			c-0.1-0.1-0.2-0.1-0.3-0.2c-0.3-0.2-0.5-0.3-0.8-0.5c-0.1-0.1-0.2-0.1-0.3-0.2c-0.4-0.2-0.7-0.3-1.1-0.5c-0.1,0-0.1,0-0.2-0.1
			c-0.3-0.1-0.7-0.2-1-0.3c-0.1,0-0.2-0.1-0.3-0.1c-0.3-0.1-0.6-0.1-1-0.2c-0.1,0-0.2,0-0.3,0c-0.4,0-0.8-0.1-1.2-0.1c0,0,0,0-0.1,0
			c-0.5,0-1,0-1.5,0.1c-0.2-0.5-0.5-0.9-0.8-1.4c-0.1-0.1-0.2-0.3-0.3-0.4c-0.2-0.3-0.4-0.6-0.6-0.8c-0.1-0.2-0.3-0.3-0.4-0.4
			c-0.2-0.2-0.4-0.5-0.7-0.7c-0.2-0.1-0.3-0.3-0.5-0.4c-0.2-0.2-0.5-0.4-0.7-0.6c-0.2-0.1-0.4-0.3-0.5-0.4c-0.2-0.2-0.5-0.3-0.8-0.5
			c-0.2-0.1-0.4-0.2-0.6-0.3c-0.3-0.1-0.5-0.3-0.8-0.4c-0.2-0.1-0.4-0.2-0.6-0.3c-0.3-0.1-0.6-0.2-0.9-0.3c-0.2-0.1-0.4-0.1-0.6-0.2
			c-0.1,0-0.1,0-0.2-0.1C31.6,23.6,35,21.5,38.8,21.6z M54.5,54.5H3.6C3.2,53.6,3,52.7,3,51.7c0-2.7,1.7-5.1,4.2-6.1
			c0.5-0.2,0.7-0.7,0.6-1.1c-0.1-0.4-0.1-0.8-0.1-1.2c0-3.1,2.5-5.5,5.5-5.5c0.1,0,0.3,0,0.4,0c0.5,0,0.9-0.3,1.1-0.7
			c1.9-6.4,8.6-10,15-8.2c3.4,1,6.1,3.4,7.6,6.6c0.2,0.4,0.7,0.7,1.1,0.6c0.4-0.1,0.8-0.1,1.2-0.2c1.4-0.1,2.7,0.1,4,0.6
			c1,0.4,1.9,0.9,2.7,1.6c0.2,0.1,0.3,0.3,0.5,0.5c0.1,0.1,0.3,0.2,0.4,0.4c1.6,1.7,2.4,4,2.4,6.3c0,0.5,0.4,0.9,0.9,1
			c2.7,0.4,4.7,2.7,4.7,5.5C55.2,52.7,54.9,53.6,54.5,54.5z"/>
	</g>
</g>
<g id="Layer_2">
	<g id="Night_Rainy">
		<path class="st5" d="M60.6,27.9c-0.4-0.2-0.9-0.1-1.2,0.2c-2.1,2.2-5,3.4-8,3.4c-6.2,0-11.3-5-11.3-11.3c0-3.7,1.8-7.1,4.8-9.2
			c0.5-0.3,0.6-0.9,0.2-1.4c-0.2-0.2-0.4-0.4-0.7-0.4c-0.1,0-0.2,0-0.4,0C34.7,9.1,27,16.8,27,26.3c0,0.4,0,0.9,0.1,1.3
			c0,0.5,0.4,0.9,0.9,0.9c4.1,0.6,7.6,3.2,9.3,7c0.2,0.4,0.7,0.7,1.1,0.6c4.4-0.9,8.9,1.5,10.6,5.7c0.1,0.4,0.5,0.6,0.9,0.6
			c0.1,0,0.2,0,0.3-0.1c5.8-2.2,10-7.3,11-13.5C61.2,28.5,61,28.1,60.6,27.9z"/>
		<path class="st6" d="M51.5,44.4c-0.1-1.1-0.3-2.3-0.7-3.3c-1.9-4.9-6.9-7.8-12.1-7.1c-2.1-4-6-6.8-10.5-7.5
			c-0.7-0.1-1.3-0.1-2-0.1c-6,0-11.3,3.8-13.3,9.4c-4.1,0.1-7.4,3.5-7.4,7.6c0,0.3,0,0.5,0,0.8c-2.9,1.4-4.7,4.4-4.7,7.6
			c0,1.5,0.4,3,1.2,4.3c0.2,0.3,0.5,0.5,0.9,0.5H55c0.3,0,0.6-0.2,0.8-0.4c2.4-3.4,1.5-8.1-1.9-10.5C53.2,45,52.4,44.6,51.5,44.4z"
			/>
		<path class="st4" d="M51.5,44.4c-0.1-0.8-0.2-1.6-0.4-2.4c5.4-2.4,9.2-7.3,10.1-13.1c0.1-0.5-0.3-1.1-0.8-1.1
			c-0.3,0-0.6,0.1-0.9,0.3c-2.1,2.2-5,3.4-8,3.4c-6.2,0-11.3-5-11.3-11.3c0-3.7,1.8-7.1,4.8-9.2c0.5-0.3,0.6-0.9,0.2-1.4
			c-0.2-0.2-0.4-0.4-0.7-0.4c-0.1,0-0.2,0-0.4,0C34.7,9.1,27,16.8,27,26.3c0,0,0,0.1,0,0.1c-0.3,0-0.5,0-0.8,0
			c-6,0-11.3,3.8-13.3,9.4c-4.1,0.1-7.4,3.5-7.4,7.6c0,0.3,0,0.5,0,0.8c-2.9,1.4-4.7,4.4-4.7,7.6c0,1.5,0.4,3,1.2,4.3
			c0.2,0.3,0.5,0.5,0.9,0.5H55c0.3,0,0.6-0.2,0.8-0.4c2.4-3.4,1.5-8.1-1.9-10.5C53.2,45,52.4,44.6,51.5,44.4z M41.5,11.4
			c-4.9,5.5-4.3,13.9,1.2,18.7c4.4,3.9,10.8,4.4,15.8,1.3c-1.4,3.9-4.3,7-8.1,8.7c-0.1-0.3-0.3-0.5-0.4-0.7c0-0.1-0.1-0.1-0.1-0.2
			c-0.1-0.2-0.2-0.4-0.3-0.5c-0.1-0.1-0.1-0.2-0.2-0.3c-0.1-0.1-0.2-0.3-0.3-0.4c-0.1-0.1-0.2-0.2-0.2-0.3c-0.1-0.1-0.2-0.3-0.4-0.4
			c-0.1-0.1-0.2-0.2-0.2-0.2c-0.1-0.1-0.3-0.3-0.4-0.4c-0.1-0.1-0.1-0.1-0.2-0.2c-0.2-0.2-0.4-0.4-0.7-0.5c-0.1-0.1-0.1-0.1-0.2-0.1
			c-0.2-0.1-0.3-0.2-0.5-0.3c-0.1-0.1-0.2-0.1-0.3-0.2c-0.2-0.1-0.3-0.2-0.5-0.3c-0.1,0-0.2-0.1-0.3-0.1c-0.2-0.1-0.4-0.2-0.5-0.2
			c-0.1,0-0.2-0.1-0.3-0.1c-0.2-0.1-0.4-0.2-0.7-0.2c0,0-0.1,0-0.1,0c-0.3-0.1-0.6-0.2-0.9-0.2c0,0-0.1,0-0.1,0
			C42.2,34,42,34,41.7,34c-0.1,0-0.1,0-0.2,0c-0.2,0-0.5,0-0.7-0.1c-0.1,0-0.2,0-0.2,0c-0.1,0-0.2,0-0.3,0c-0.1,0-0.1,0-0.2,0
			c-0.4,0-0.9,0-1.3,0.1c-0.3-0.5-0.5-1-0.8-1.4c-0.1-0.1-0.2-0.3-0.3-0.4c-0.2-0.3-0.4-0.6-0.7-0.9c-0.1-0.2-0.3-0.3-0.4-0.5
			c-0.2-0.2-0.4-0.5-0.7-0.7c-0.2-0.2-0.3-0.3-0.5-0.4c-0.2-0.2-0.5-0.4-0.7-0.6c-0.2-0.1-0.4-0.3-0.6-0.4c-0.2-0.2-0.5-0.3-0.8-0.5
			c-0.2-0.1-0.4-0.2-0.7-0.3c-0.3-0.1-0.5-0.3-0.8-0.4c-0.2-0.1-0.5-0.2-0.7-0.3c-0.3-0.1-0.6-0.2-0.8-0.3c-0.2-0.1-0.5-0.1-0.7-0.2
			c-0.2,0-0.3-0.1-0.4-0.1c0-0.1,0-0.2,0-0.4C29,19,34.3,12.7,41.5,11.4z M54.4,54.4H3.5c-0.4-0.9-0.6-1.8-0.6-2.7
			c0-2.7,1.7-5.1,4.2-6.1c0.5-0.2,0.7-0.7,0.6-1.2c-0.1-0.4-0.1-0.8-0.1-1.2c0-3.1,2.5-5.5,5.5-5.5c0.1,0,0.3,0,0.4,0
			c0.5,0.1,0.9-0.2,1.1-0.7c1.5-5.1,6.2-8.6,11.6-8.7c0.6,0,1.1,0,1.7,0.1c4.1,0.6,7.6,3.2,9.3,7c0.2,0.4,0.7,0.7,1.1,0.6
			c5-1.1,9.9,2.2,11,7.2c0.1,0.7,0.2,1.3,0.2,2c0,0.5,0.4,0.9,0.9,1c3,0.4,5.1,3.2,4.7,6.3C55,53.2,54.8,53.8,54.4,54.4L54.4,54.4z"
			/>
	</g>
</g>
</svg>
