<?xml version="1.0" encoding="utf-8"?>
<!-- Generator: Adobe Illustrator 23.1.0, SVG Export Plug-In . SVG Version: 6.00 Build 0)  -->
<svg version="1.1" xmlns="http://www.w3.org/2000/svg" xmlns:xlink="http://www.w3.org/1999/xlink" x="0px" y="0px"
	 viewBox="0 0 40 40" style="enable-background:new 0 0 40 40;" xml:space="preserve">
<style type="text/css">
	.st0{display:none;}
	.st1{display:inline;}
	.st2{fill:#FFFFFF;enable-background:new    ;}
</style>
<g id="Layer_2" class="st0">
	<rect x="-20.1" y="-9" class="st1" width="73.2" height="55.2"/>
</g>
<g id="Layer_1">
	<path class="st2" d="M20,0.5C9.2,0.5,0.5,9.2,0.5,20S9.2,39.5,20,39.5S39.5,30.8,39.5,20S30.8,0.5,20,0.5z M25.5,20.9L17,29.4
		c-0.1,0.1-0.3,0.2-0.4,0.2c-0.1,0-0.3-0.1-0.4-0.2l-0.9-0.9c-0.1-0.1-0.2-0.3-0.2-0.4c0-0.1,0.1-0.3,0.2-0.4l7.2-7.2l-7.2-7.2
		c-0.1-0.1-0.2-0.3-0.2-0.4s0.1-0.3,0.2-0.4l0.9-0.9c0.1-0.1,0.3-0.2,0.4-0.2c0.1,0,0.3,0.1,0.4,0.2l8.5,8.5
		c0.1,0.1,0.2,0.3,0.2,0.4S25.6,20.8,25.5,20.9z"/>
</g>
</svg>
